<?xml version="1.0" encoding="UTF-8" standalone="no"?>
<!DOCTYPE svg PUBLIC "-//W3C//DTD SVG 1.1//EN"
 "http://www.w3.org/Graphics/SVG/1.1/DTD/svg11.dtd">
<!-- Generated by graphviz version 2.40.1 (20161225.0304)
 -->
<!-- Title: activities Pages: 1 -->
<svg width="296pt" height="405pt"
 viewBox="0.00 0.00 296.00 405.00" xmlns="http://www.w3.org/2000/svg" xmlns:xlink="http://www.w3.org/1999/xlink">
<g id="graph0" class="graph" transform="scale(1 1) rotate(0) translate(4 401)">
<title>activities</title>
<polygon fill="#ffffff" stroke="transparent" points="-4,4 -4,-401 292,-401 292,4 -4,4"/>
<!-- activities -->
<g id="node1" class="node">
<title>activities</title>
<polygon fill="#efefef" stroke="transparent" points="46,-315.5 46,-350.5 242,-350.5 242,-315.5 46,-315.5"/>
<polygon fill="none" stroke="#000000" points="46,-315.5 46,-350.5 242,-350.5 242,-315.5 46,-315.5"/>
<text text-anchor="start" x="73.3348" y="-328.3" font-family="Arial Bold" font-size="18.00" fill="#000000">activities</text>
<text text-anchor="start" x="142.3342" y="-328.3" font-family="Arial" font-size="14.00" fill="#000000">    </text>
<text text-anchor="start" x="176.539" y="-328.3" font-family="Arial" font-size="14.00" fill="#666666">[table]</text>
<polygon fill="none" stroke="#000000" points="46,-285.5 46,-315.5 242,-315.5 242,-285.5 46,-285.5"/>
<text text-anchor="start" x="53" y="-296.9" font-family="Arial" font-size="14.00" fill="#000000">id </text>
<text text-anchor="start" x="67.7798" y="-296.9" font-family="Arial" font-size="14.00" fill="#666666">[INTEGER]</text>
<polygon fill="none" stroke="#000000" points="46,-255.5 46,-285.5 242,-285.5 242,-255.5 46,-255.5"/>
<text text-anchor="start" x="53" y="-266.9" font-family="Arial" font-size="14.00" fill="#000000">user </text>
<text text-anchor="start" x="84.1164" y="-266.9" font-family="Arial" font-size="14.00" fill="#666666">[VARCHAR(32)]</text>
<polygon fill="none" stroke="#000000" points="46,-225.5 46,-255.5 242,-255.5 242,-225.5 46,-225.5"/>
<text text-anchor="start" x="53" y="-236.9" font-family="Arial" font-size="14.00" fill="#000000">request_id </text>
<text text-anchor="start" x="122.244" y="-236.9" font-family="Arial" font-size="14.00" fill="#666666">[VARCHAR(32)]</text>
<polygon fill="none" stroke="#000000" points="46,-195.5 46,-225.5 242,-225.5 242,-195.5 46,-195.5"/>
<text text-anchor="start" x="52.9951" y="-206.9" font-family="Arial" font-size="14.00" fill="#000000">activity_type </text>
<text text-anchor="start" x="133.9011" y="-206.9" font-family="Arial" font-size="14.00" fill="#666666">[VARCHAR(32)]</text>
<polygon fill="none" stroke="#000000" points="46,-165.5 46,-195.5 242,-195.5 242,-165.5 46,-165.5"/>
<text text-anchor="start" x="53" y="-176.9" font-family="Arial" font-size="14.00" fill="#000000">status </text>
<text text-anchor="start" x="94.237" y="-176.9" font-family="Arial" font-size="14.00" fill="#666666">[VARCHAR(32)]</text>
<polygon fill="none" stroke="#000000" points="46,-135.5 46,-165.5 242,-165.5 242,-135.5 46,-135.5"/>
<text text-anchor="start" x="53" y="-146.9" font-family="Arial" font-size="14.00" fill="#000000">summary </text>
<text text-anchor="start" x="114.4376" y="-146.9" font-family="Arial" font-size="14.00" fill="#666666">[VARCHAR(128)]</text>
<polygon fill="none" stroke="#000000" points="46,-105.5 46,-135.5 242,-135.5 242,-105.5 46,-105.5"/>
<text text-anchor="start" x="53" y="-116.9" font-family="Arial" font-size="14.00" fill="#000000">detail </text>
<text text-anchor="start" x="90.3422" y="-116.9" font-family="Arial" font-size="14.00" fill="#666666">[VARCHAR(255)]</text>
<polygon fill="none" stroke="#000000" points="46,-75.5 46,-105.5 242,-105.5 242,-75.5 46,-75.5"/>
<text text-anchor="start" x="53" y="-86.9" font-family="Arial" font-size="14.00" fill="#000000">created </text>
<text text-anchor="start" x="103.5722" y="-86.9" font-family="Arial" font-size="14.00" fill="#666666">[DATETIME]</text>
<polygon fill="none" stroke="#000000" points="46,-45.5 46,-75.5 242,-75.5 242,-45.5 46,-45.5"/>
<text text-anchor="start" x="53" y="-56.9" font-family="Arial" font-size="14.00" fill="#000000">updated </text>
<text text-anchor="start" x="107.4768" y="-56.9" font-family="Arial" font-size="14.00" fill="#666666">[DATETIME]</text>
<polygon fill="none" stroke="#000000" stroke-width="3" points="44.5,-44.5 44.5,-352.5 243.5,-352.5 243.5,-44.5 44.5,-44.5"/>
</g>
</g>
</svg>
