<?xml version="1.0" encoding="UTF-8" standalone="no"?>
<!DOCTYPE svg PUBLIC "-//W3C//DTD SVG 1.1//EN"
 "http://www.w3.org/Graphics/SVG/1.1/DTD/svg11.dtd">
<!-- Generated by graphviz version 2.40.1 (20161225.0304)
 -->
<!-- Title: alembic_version Pages: 1 -->
<svg width="316pt" height="165pt"
 viewBox="0.00 0.00 316.00 165.00" xmlns="http://www.w3.org/2000/svg" xmlns:xlink="http://www.w3.org/1999/xlink">
<g id="graph0" class="graph" transform="scale(1 1) rotate(0) translate(4 161)">
<title>alembic_version</title>
<polygon fill="#ffffff" stroke="transparent" points="-4,4 -4,-161 312,-161 312,4 -4,4"/>
<!-- alembic_version -->
<g id="node1" class="node">
<title>alembic_version</title>
<polygon fill="#efefef" stroke="transparent" points="46,-75.5 46,-110.5 262,-110.5 262,-75.5 46,-75.5"/>
<polygon fill="none" stroke="#000000" points="46,-75.5 46,-110.5 262,-110.5 262,-75.5 46,-75.5"/>
<text text-anchor="start" x="52.8293" y="-88.3" font-family="Arial Bold" font-size="18.00" fill="#000000">alembic_version</text>
<text text-anchor="start" x="182.8397" y="-88.3" font-family="Arial" font-size="14.00" fill="#000000">    </text>
<text text-anchor="start" x="217.0445" y="-88.3" font-family="Arial" font-size="14.00" fill="#666666">[table]</text>
<polygon fill="none" stroke="#000000" points="46,-45.5 46,-75.5 262,-75.5 262,-45.5 46,-45.5"/>
<text text-anchor="start" x="53" y="-56.9" font-family="Arial" font-size="14.00" fill="#000000">version_num </text>
<text text-anchor="start" x="137.014" y="-56.9" font-family="Arial" font-size="14.00" fill="#666666">[VARCHAR(32)]</text>
<polygon fill="none" stroke="#000000" stroke-width="3" points="44.5,-44.5 44.5,-112.5 263.5,-112.5 263.5,-44.5 44.5,-44.5"/>
</g>
</g>
</svg>
