<?xml version="1.0" encoding="UTF-8" standalone="no"?>
<!DOCTYPE svg PUBLIC "-//W3C//DTD SVG 1.1//EN"
 "http://www.w3.org/Graphics/SVG/1.1/DTD/svg11.dtd">
<!-- Generated by graphviz version 2.40.1 (20161225.0304)
 -->
<!-- Title: iaas_requests Pages: 1 -->
<svg width="339pt" height="555pt"
 viewBox="0.00 0.00 339.00 555.00" xmlns="http://www.w3.org/2000/svg" xmlns:xlink="http://www.w3.org/1999/xlink">
<g id="graph0" class="graph" transform="scale(1 1) rotate(0) translate(4 551)">
<title>iaas_requests</title>
<polygon fill="#ffffff" stroke="transparent" points="-4,4 -4,-551 335,-551 335,4 -4,4"/>
<!-- iaas_requests -->
<g id="node1" class="node">
<title>iaas_requests</title>
<polygon fill="#efefef" stroke="transparent" points="46.5,-465.5 46.5,-500.5 285.5,-500.5 285.5,-465.5 46.5,-465.5"/>
<polygon fill="none" stroke="#000000" points="46.5,-465.5 46.5,-500.5 285.5,-500.5 285.5,-465.5 46.5,-465.5"/>
<text text-anchor="start" x="73.8185" y="-478.3" font-family="Arial Bold" font-size="18.00" fill="#000000">iaas_requests</text>
<text text-anchor="start" x="185.8505" y="-478.3" font-family="Arial" font-size="14.00" fill="#000000">    </text>
<text text-anchor="start" x="220.0553" y="-478.3" font-family="Arial" font-size="14.00" fill="#666666">[table]</text>
<polygon fill="none" stroke="#000000" points="46.5,-435.5 46.5,-465.5 285.5,-465.5 285.5,-435.5 46.5,-435.5"/>
<text text-anchor="start" x="53.5" y="-446.9" font-family="Arial" font-size="14.00" fill="#000000">id </text>
<text text-anchor="start" x="68.2798" y="-446.9" font-family="Arial" font-size="14.00" fill="#666666">[INTEGER]</text>
<polygon fill="none" stroke="#000000" points="46.5,-405.5 46.5,-435.5 285.5,-435.5 285.5,-405.5 46.5,-405.5"/>
<text text-anchor="start" x="53.5" y="-416.9" font-family="Arial" font-size="14.00" fill="#000000">request_id </text>
<text text-anchor="start" x="122.744" y="-416.9" font-family="Arial" font-size="14.00" fill="#666666">[VARCHAR(32)]</text>
<polygon fill="none" stroke="#000000" points="46.5,-375.5 46.5,-405.5 285.5,-405.5 285.5,-375.5 46.5,-375.5"/>
<text text-anchor="start" x="53.5" y="-386.9" font-family="Arial" font-size="14.00" fill="#000000">request_date </text>
<text text-anchor="start" x="139.0932" y="-386.9" font-family="Arial" font-size="14.00" fill="#666666">[DATETIME]</text>
<polygon fill="none" stroke="#000000" points="46.5,-345.5 46.5,-375.5 285.5,-375.5 285.5,-345.5 46.5,-345.5"/>
<text text-anchor="start" x="53.5" y="-356.9" font-family="Arial" font-size="14.00" fill="#000000">request_deadline </text>
<text text-anchor="start" x="164.7636" y="-356.9" font-family="Arial" font-size="14.00" fill="#666666">[DATETIME]</text>
<polygon fill="none" stroke="#000000" points="46.5,-315.5 46.5,-345.5 285.5,-345.5 285.5,-315.5 46.5,-315.5"/>
<text text-anchor="start" x="53.5" y="-326.9" font-family="Arial" font-size="14.00" fill="#000000">request_user </text>
<text text-anchor="start" x="139.0806" y="-326.9" font-family="Arial" font-size="14.00" fill="#666666">[VARCHAR(32)]</text>
<polygon fill="none" stroke="#000000" points="46.5,-285.5 46.5,-315.5 285.5,-315.5 285.5,-285.5 46.5,-285.5"/>
<text text-anchor="start" x="53.5" y="-296.9" font-family="Arial" font-size="14.00" fill="#000000">request_status </text>
<text text-anchor="start" x="149.2012" y="-296.9" font-family="Arial" font-size="14.00" fill="#666666">[VARCHAR(32)]</text>
<polygon fill="none" stroke="#000000" points="46.5,-255.5 46.5,-285.5 285.5,-285.5 285.5,-255.5 46.5,-255.5"/>
<text text-anchor="start" x="53.5" y="-266.9" font-family="Arial" font-size="14.00" fill="#000000">request_category </text>
<text text-anchor="start" x="165.5364" y="-266.9" font-family="Arial" font-size="14.00" fill="#666666">[VARCHAR(255)]</text>
<polygon fill="none" stroke="#000000" points="46.5,-225.5 46.5,-255.5 285.5,-255.5 285.5,-225.5 46.5,-225.5"/>
<text text-anchor="start" x="53.2027" y="-236.9" font-family="Arial" font-size="14.00" fill="#000000">request_operation </text>
<text text-anchor="start" x="169.9109" y="-236.9" font-family="Arial" font-size="14.00" fill="#666666">[VARCHAR(255)]</text>
<polygon fill="none" stroke="#000000" points="46.5,-195.5 46.5,-225.5 285.5,-225.5 285.5,-195.5 46.5,-195.5"/>
<text text-anchor="start" x="53.5" y="-206.9" font-family="Arial" font-size="14.00" fill="#000000">request_text </text>
<text text-anchor="start" x="134.4186" y="-206.9" font-family="Arial" font-size="14.00" fill="#666666">[VARCHAR(255)]</text>
<polygon fill="none" stroke="#000000" points="46.5,-165.5 46.5,-195.5 285.5,-195.5 285.5,-165.5 46.5,-165.5"/>
<text text-anchor="start" x="53.5" y="-176.9" font-family="Arial" font-size="14.00" fill="#000000">job_options </text>
<text text-anchor="start" x="128.9726" y="-176.9" font-family="Arial" font-size="14.00" fill="#666666">[JSON]</text>
<polygon fill="none" stroke="#000000" points="46.5,-135.5 46.5,-165.5 285.5,-165.5 285.5,-135.5 46.5,-135.5"/>
<text text-anchor="start" x="53.5" y="-146.9" font-family="Arial" font-size="14.00" fill="#000000">created </text>
<text text-anchor="start" x="104.0722" y="-146.9" font-family="Arial" font-size="14.00" fill="#666666">[DATETIME]</text>
<polygon fill="none" stroke="#000000" points="46.5,-105.5 46.5,-135.5 285.5,-135.5 285.5,-105.5 46.5,-105.5"/>
<text text-anchor="start" x="53.5" y="-116.9" font-family="Arial" font-size="14.00" fill="#000000">updated </text>
<text text-anchor="start" x="107.9768" y="-116.9" font-family="Arial" font-size="14.00" fill="#666666">[DATETIME]</text>
<polygon fill="none" stroke="#000000" points="46.5,-75.5 46.5,-105.5 285.5,-105.5 285.5,-75.5 46.5,-75.5"/>
<text text-anchor="start" x="53.5" y="-86.9" font-family="Arial" font-size="14.00" fill="#000000">iaas_user </text>
<text text-anchor="start" x="118.0708" y="-86.9" font-family="Arial" font-size="14.00" fill="#666666">[VARCHAR(32)]</text>
<polygon fill="none" stroke="#000000" points="46.5,-45.5 46.5,-75.5 285.5,-75.5 285.5,-45.5 46.5,-45.5"/>
<text text-anchor="start" x="53.5" y="-56.9" font-family="Arial" font-size="14.00" fill="#000000">job_id </text>
<text text-anchor="start" x="94.7342" y="-56.9" font-family="Arial" font-size="14.00" fill="#666666">[INTEGER]</text>
<polygon fill="none" stroke="#000000" stroke-width="3" points="44.5,-44.5 44.5,-502.5 286.5,-502.5 286.5,-44.5 44.5,-44.5"/>
</g>
</g>
</svg>
