<?xml version="1.0" encoding="UTF-8" standalone="no"?>
<!DOCTYPE svg PUBLIC "-//W3C//DTD SVG 1.1//EN"
 "http://www.w3.org/Graphics/SVG/1.1/DTD/svg11.dtd">
<!-- Generated by graphviz version 2.40.1 (20161225.0304)
 -->
<!-- Title: iaas_requests.sqlite3 Pages: 1 -->
<svg width="1329pt" height="549pt"
 viewBox="0.00 0.00 1328.50 549.00" xmlns="http://www.w3.org/2000/svg" xmlns:xlink="http://www.w3.org/1999/xlink">
<g id="graph0" class="graph" transform="scale(1 1) rotate(0) translate(4 545)">
<title>iaas_requests.sqlite3</title>
<polygon fill="#ffffff" stroke="transparent" points="-4,4 -4,-545 1324.5,-545 1324.5,4 -4,4"/>
<!-- alembic_version -->
<g id="node1" class="node">
<title>alembic_version</title>
<polygon fill="#efefef" stroke="transparent" points="43.5,-267.5 43.5,-302.5 272.5,-302.5 272.5,-267.5 43.5,-267.5"/>
<polygon fill="none" stroke="#000000" points="43.5,-267.5 43.5,-302.5 272.5,-302.5 272.5,-267.5 43.5,-267.5"/>
<text text-anchor="start" x="56.8293" y="-280.3" font-family="Arial Bold" font-size="18.00" fill="#000000">alembic_version</text>
<text text-anchor="start" x="186.8397" y="-280.3" font-family="Arial" font-size="14.00" fill="#000000">    </text>
<text text-anchor="start" x="221.0445" y="-280.3" font-family="Arial" font-size="14.00" fill="#666666">[table]</text>
<polygon fill="none" stroke="#000000" points="43.5,-237.5 43.5,-267.5 272.5,-267.5 272.5,-237.5 43.5,-237.5"/>
<text text-anchor="start" x="50.284" y="-248.9" font-family="Arial" font-size="14.00" fill="#000000">version_num    </text>
<text text-anchor="start" x="164.6122" y="-248.9" font-family="Arial" font-size="14.00" fill="#666666">[VARCHAR(32)]</text>
</g>
<!-- iaas_requests -->
<g id="node2" class="node">
<title>iaas_requests</title>
<polygon fill="#efefef" stroke="transparent" points="376.5,-462.5 376.5,-497.5 645.5,-497.5 645.5,-462.5 376.5,-462.5"/>
<polygon fill="none" stroke="#000000" points="376.5,-462.5 376.5,-497.5 645.5,-497.5 645.5,-462.5 376.5,-462.5"/>
<text text-anchor="start" x="418.8185" y="-475.3" font-family="Arial Bold" font-size="18.00" fill="#000000">iaas_requests</text>
<text text-anchor="start" x="530.8505" y="-475.3" font-family="Arial" font-size="14.00" fill="#000000">    </text>
<text text-anchor="start" x="565.0553" y="-475.3" font-family="Arial" font-size="14.00" fill="#666666">[table]</text>
<polygon fill="none" stroke="#000000" points="376.5,-432.5 376.5,-462.5 645.5,-462.5 645.5,-432.5 376.5,-432.5"/>
<text text-anchor="start" x="383.5" y="-443.9" font-family="Arial" font-size="14.00" fill="#000000">id    </text>
<text text-anchor="start" x="428.594" y="-443.9" font-family="Arial" font-size="14.00" fill="#666666">[INTEGER]</text>
<polygon fill="none" stroke="#000000" points="376.5,-402.5 376.5,-432.5 645.5,-432.5 645.5,-402.5 376.5,-402.5"/>
<text text-anchor="start" x="383.5" y="-413.9" font-family="Arial" font-size="14.00" fill="#000000">request_id    </text>
<text text-anchor="start" x="483.0582" y="-413.9" font-family="Arial" font-size="14.00" fill="#666666">[VARCHAR(32)]</text>
<polygon fill="none" stroke="#000000" points="376.5,-372.5 376.5,-402.5 645.5,-402.5 645.5,-372.5 376.5,-372.5"/>
<text text-anchor="start" x="383.5" y="-383.9" font-family="Arial" font-size="14.00" fill="#000000">request_date    </text>
<text text-anchor="start" x="499.4074" y="-383.9" font-family="Arial" font-size="14.00" fill="#666666">[DATETIME]</text>
<polygon fill="none" stroke="#000000" points="376.5,-342.5 376.5,-372.5 645.5,-372.5 645.5,-342.5 376.5,-342.5"/>
<text text-anchor="start" x="383.5" y="-353.9" font-family="Arial" font-size="14.00" fill="#000000">request_deadline    </text>
<text text-anchor="start" x="525.0778" y="-353.9" font-family="Arial" font-size="14.00" fill="#666666">[DATETIME]</text>
<polygon fill="none" stroke="#000000" points="376.5,-312.5 376.5,-342.5 645.5,-342.5 645.5,-312.5 376.5,-312.5"/>
<text text-anchor="start" x="383.5" y="-323.9" font-family="Arial" font-size="14.00" fill="#000000">request_user    </text>
<text text-anchor="start" x="499.3948" y="-323.9" font-family="Arial" font-size="14.00" fill="#666666">[VARCHAR(32)]</text>
<polygon fill="none" stroke="#000000" points="376.5,-282.5 376.5,-312.5 645.5,-312.5 645.5,-282.5 376.5,-282.5"/>
<text text-anchor="start" x="383.5" y="-293.9" font-family="Arial" font-size="14.00" fill="#000000">request_status    </text>
<text text-anchor="start" x="509.5154" y="-293.9" font-family="Arial" font-size="14.00" fill="#666666">[VARCHAR(32)]</text>
<polygon fill="none" stroke="#000000" points="376.5,-252.5 376.5,-282.5 645.5,-282.5 645.5,-252.5 376.5,-252.5"/>
<text text-anchor="start" x="383.5" y="-263.9" font-family="Arial" font-size="14.00" fill="#000000">request_category    </text>
<text text-anchor="start" x="525.8506" y="-263.9" font-family="Arial" font-size="14.00" fill="#666666">[VARCHAR(255)]</text>
<polygon fill="none" stroke="#000000" points="376.5,-222.5 376.5,-252.5 645.5,-252.5 645.5,-222.5 376.5,-222.5"/>
<text text-anchor="start" x="383.0456" y="-233.9" font-family="Arial" font-size="14.00" fill="#000000">request_operation    </text>
<text text-anchor="start" x="530.068" y="-233.9" font-family="Arial" font-size="14.00" fill="#666666">[VARCHAR(255)]</text>
<polygon fill="none" stroke="#000000" points="376.5,-192.5 376.5,-222.5 645.5,-222.5 645.5,-192.5 376.5,-192.5"/>
<text text-anchor="start" x="383.5" y="-203.9" font-family="Arial" font-size="14.00" fill="#000000">request_text    </text>
<text text-anchor="start" x="494.7328" y="-203.9" font-family="Arial" font-size="14.00" fill="#666666">[VARCHAR(255)]</text>
<polygon fill="none" stroke="#000000" points="376.5,-162.5 376.5,-192.5 645.5,-192.5 645.5,-162.5 376.5,-162.5"/>
<text text-anchor="start" x="383.5" y="-173.9" font-family="Arial" font-size="14.00" fill="#000000">job_options    </text>
<text text-anchor="start" x="489.2868" y="-173.9" font-family="Arial" font-size="14.00" fill="#666666">[JSON]</text>
<polygon fill="none" stroke="#000000" points="376.5,-132.5 376.5,-162.5 645.5,-162.5 645.5,-132.5 376.5,-132.5"/>
<text text-anchor="start" x="383.5" y="-143.9" font-family="Arial" font-size="14.00" fill="#000000">created    </text>
<text text-anchor="start" x="464.3864" y="-143.9" font-family="Arial" font-size="14.00" fill="#666666">[DATETIME]</text>
<polygon fill="none" stroke="#000000" points="376.5,-102.5 376.5,-132.5 645.5,-132.5 645.5,-102.5 376.5,-102.5"/>
<text text-anchor="start" x="383.5" y="-113.9" font-family="Arial" font-size="14.00" fill="#000000">updated    </text>
<text text-anchor="start" x="468.291" y="-113.9" font-family="Arial" font-size="14.00" fill="#666666">[DATETIME]</text>
<polygon fill="none" stroke="#000000" points="376.5,-72.5 376.5,-102.5 645.5,-102.5 645.5,-72.5 376.5,-72.5"/>
<text text-anchor="start" x="383.5" y="-83.9" font-family="Arial" font-size="14.00" fill="#000000">iaas_user    </text>
<text text-anchor="start" x="478.385" y="-83.9" font-family="Arial" font-size="14.00" fill="#666666">[VARCHAR(32)]</text>
<polygon fill="none" stroke="#000000" points="376.5,-42.5 376.5,-72.5 645.5,-72.5 645.5,-42.5 376.5,-42.5"/>
<text text-anchor="start" x="383.5" y="-53.9" font-family="Arial" font-size="14.00" fill="#000000">job_id    </text>
<text text-anchor="start" x="455.0484" y="-53.9" font-family="Arial" font-size="14.00" fill="#666666">[INTEGER]</text>
</g>
<!-- activities -->
<g id="node3" class="node">
<title>activities</title>
<polygon fill="#efefef" stroke="transparent" points="749.5,-387.5 749.5,-422.5 975.5,-422.5 975.5,-387.5 749.5,-387.5"/>
<polygon fill="none" stroke="#000000" points="749.5,-387.5 749.5,-422.5 975.5,-422.5 975.5,-387.5 749.5,-387.5"/>
<text text-anchor="start" x="791.8348" y="-400.3" font-family="Arial Bold" font-size="18.00" fill="#000000">activities</text>
<text text-anchor="start" x="860.8342" y="-400.3" font-family="Arial" font-size="14.00" fill="#000000">    </text>
<text text-anchor="start" x="895.039" y="-400.3" font-family="Arial" font-size="14.00" fill="#666666">[table]</text>
<polygon fill="none" stroke="#000000" points="749.5,-357.5 749.5,-387.5 975.5,-387.5 975.5,-357.5 749.5,-357.5"/>
<text text-anchor="start" x="756.5" y="-368.9" font-family="Arial" font-size="14.00" fill="#000000">id    </text>
<text text-anchor="start" x="801.594" y="-368.9" font-family="Arial" font-size="14.00" fill="#666666">[INTEGER]</text>
<polygon fill="none" stroke="#000000" points="749.5,-327.5 749.5,-357.5 975.5,-357.5 975.5,-327.5 749.5,-327.5"/>
<text text-anchor="start" x="756.5" y="-338.9" font-family="Arial" font-size="14.00" fill="#000000">user    </text>
<text text-anchor="start" x="817.9306" y="-338.9" font-family="Arial" font-size="14.00" fill="#666666">[VARCHAR(32)]</text>
<polygon fill="none" stroke="#000000" points="749.5,-297.5 749.5,-327.5 975.5,-327.5 975.5,-297.5 749.5,-297.5"/>
<text text-anchor="start" x="756.5" y="-308.9" font-family="Arial" font-size="14.00" fill="#000000">request_id    </text>
<text text-anchor="start" x="856.0582" y="-308.9" font-family="Arial" font-size="14.00" fill="#666666">[VARCHAR(32)]</text>
<polygon fill="none" stroke="#000000" points="749.5,-267.5 749.5,-297.5 975.5,-297.5 975.5,-267.5 749.5,-267.5"/>
<text text-anchor="start" x="756.338" y="-278.9" font-family="Arial" font-size="14.00" fill="#000000">activity_type    </text>
<text text-anchor="start" x="867.5582" y="-278.9" font-family="Arial" font-size="14.00" fill="#666666">[VARCHAR(32)]</text>
<polygon fill="none" stroke="#000000" points="749.5,-237.5 749.5,-267.5 975.5,-267.5 975.5,-237.5 749.5,-237.5"/>
<text text-anchor="start" x="756.5" y="-248.9" font-family="Arial" font-size="14.00" fill="#000000">status    </text>
<text text-anchor="start" x="828.0512" y="-248.9" font-family="Arial" font-size="14.00" fill="#666666">[VARCHAR(32)]</text>
<polygon fill="none" stroke="#000000" points="749.5,-207.5 749.5,-237.5 975.5,-237.5 975.5,-207.5 749.5,-207.5"/>
<text text-anchor="start" x="756.5" y="-218.9" font-family="Arial" font-size="14.00" fill="#000000">summary    </text>
<text text-anchor="start" x="848.2518" y="-218.9" font-family="Arial" font-size="14.00" fill="#666666">[VARCHAR(128)]</text>
<polygon fill="none" stroke="#000000" points="749.5,-177.5 749.5,-207.5 975.5,-207.5 975.5,-177.5 749.5,-177.5"/>
<text text-anchor="start" x="756.5" y="-188.9" font-family="Arial" font-size="14.00" fill="#000000">detail    </text>
<text text-anchor="start" x="824.1564" y="-188.9" font-family="Arial" font-size="14.00" fill="#666666">[VARCHAR(255)]</text>
<polygon fill="none" stroke="#000000" points="749.5,-147.5 749.5,-177.5 975.5,-177.5 975.5,-147.5 749.5,-147.5"/>
<text text-anchor="start" x="756.5" y="-158.9" font-family="Arial" font-size="14.00" fill="#000000">created    </text>
<text text-anchor="start" x="837.3864" y="-158.9" font-family="Arial" font-size="14.00" fill="#666666">[DATETIME]</text>
<polygon fill="none" stroke="#000000" points="749.5,-117.5 749.5,-147.5 975.5,-147.5 975.5,-117.5 749.5,-117.5"/>
<text text-anchor="start" x="756.5" y="-128.9" font-family="Arial" font-size="14.00" fill="#000000">updated    </text>
<text text-anchor="start" x="841.291" y="-128.9" font-family="Arial" font-size="14.00" fill="#666666">[DATETIME]</text>
</g>
<!-- configurations -->
<g id="node4" class="node">
<title>configurations</title>
<polygon fill="#efefef" stroke="transparent" points="1079.5,-297.5 1079.5,-332.5 1277.5,-332.5 1277.5,-297.5 1079.5,-297.5"/>
<polygon fill="none" stroke="#000000" points="1079.5,-297.5 1079.5,-332.5 1277.5,-332.5 1277.5,-297.5 1079.5,-297.5"/>
<text text-anchor="start" x="1086.3203" y="-310.3" font-family="Arial Bold" font-size="18.00" fill="#000000">configurations</text>
<text text-anchor="start" x="1198.3487" y="-310.3" font-family="Arial" font-size="14.00" fill="#000000">    </text>
<text text-anchor="start" x="1232.5535" y="-310.3" font-family="Arial" font-size="14.00" fill="#666666">[table]</text>
<polygon fill="none" stroke="#000000" points="1079.5,-267.5 1079.5,-297.5 1277.5,-297.5 1277.5,-267.5 1079.5,-267.5"/>
<text text-anchor="start" x="1086.5" y="-278.9" font-family="Arial" font-size="14.00" fill="#000000">id    </text>
<text text-anchor="start" x="1131.594" y="-278.9" font-family="Arial" font-size="14.00" fill="#666666">[INTEGER]</text>
<polygon fill="none" stroke="#000000" points="1079.5,-237.5 1079.5,-267.5 1277.5,-267.5 1277.5,-237.5 1079.5,-237.5"/>
<text text-anchor="start" x="1086.5" y="-248.9" font-family="Arial" font-size="14.00" fill="#000000">name    </text>
<text text-anchor="start" x="1155.7132" y="-248.9" font-family="Arial" font-size="14.00" fill="#666666">[VARCHAR(32)]</text>
<polygon fill="none" stroke="#000000" points="1079.5,-207.5 1079.5,-237.5 1277.5,-237.5 1277.5,-207.5 1079.5,-207.5"/>
<text text-anchor="start" x="1086.5" y="-218.9" font-family="Arial" font-size="14.00" fill="#000000">value    </text>
<text text-anchor="start" x="1154.1592" y="-218.9" font-family="Arial" font-size="14.00" fill="#666666">[VARCHAR(64)]</text>
</g>
</g>
</svg>
