<?xml version="1.0" encoding="UTF-8"?>
<svg version="1.1" xmlns="http://www.w3.org/2000/svg" width="512" height="512">
<path d="M0 0 C1.12382584 0.00190338 1.12382584 0.00190338 2.27035522 0.00384521 C70.27118687 0.22250031 130.00469928 26.45320596 178.3125 73.6875 C183.46912729 78.91052163 188.14168921 84.37974765 192.625 90.1875 C193.25075928 90.9906665 193.25075928 90.9906665 193.88916016 91.81005859 C219.77008331 125.22799754 235.73738258 163.77394941 242.4375 205.375 C242.60511841 206.41321899 242.60511841 206.41321899 242.77612305 207.47241211 C252.33950029 272.20266142 236.96659875 338.40045272 198.625 391.1875 C193.68034086 397.80154865 188.24769643 403.89837285 182.62890625 409.9375 C180.60171183 412.01665215 180.60171183 412.01665215 179.625 414.1875 C178.965 414.1875 178.305 414.1875 177.625 414.1875 C177.25375 415.05375 177.25375 415.05375 176.875 415.9375 C175.44200012 418.51689979 173.84075324 420.24871592 171.625 422.1875 C170.965 422.1875 170.305 422.1875 169.625 422.1875 C169.625 422.8475 169.625 423.5075 169.625 424.1875 C166.65279439 426.95123428 163.42646717 429.40766324 160.23681641 431.91552734 C158.70393178 433.12521061 157.18551434 434.35316012 155.66796875 435.58203125 C112.21960804 470.10646679 58.29752703 488.38346463 2.9375 488.4375 C1.85476303 488.43901062 1.85476303 488.43901062 0.75015259 488.44055176 C-12.4700446 488.42817006 -25.3289317 487.41574754 -38.375 485.1875 C-39.67002441 484.9706958 -39.67002441 484.9706958 -40.99121094 484.74951172 C-64.9085132 480.63573573 -87.92145318 473.48918827 -109.41796875 462.2109375 C-111.33386666 461.20901085 -113.25930663 460.22801148 -115.1875 459.25 C-127.8394511 452.75984133 -139.41424959 444.85835451 -150.69921875 436.23046875 C-153.77143285 433.88482207 -156.90039145 431.62365366 -160.046875 429.37890625 C-160.48515625 428.98574219 -160.9234375 428.59257812 -161.375 428.1875 C-161.375 427.5275 -161.375 426.8675 -161.375 426.1875 C-161.95822021 425.92807617 -162.54144043 425.66865234 -163.14233398 425.40136719 C-167.20479823 423.19266602 -170.20195269 419.69684071 -173.4375 416.4375 C-174.19538818 415.67614746 -174.95327637 414.91479492 -175.73413086 414.13037109 C-182.20014433 407.53997156 -187.91482011 400.61915915 -193.375 393.1875 C-194.07753906 392.25679688 -194.78007812 391.32609375 -195.50390625 390.3671875 C-227.25424477 347.74344538 -241.65545846 297.54140748 -241.5625 244.625 C-241.56156342 243.92751648 -241.56062683 243.23003296 -241.55966187 242.51141357 C-241.40337818 188.45573643 -225.11849931 136.85507703 -191.64453125 94.125 C-189.80868536 91.74882769 -188.068333 89.35256097 -186.375 86.875 C-185.715 85.988125 -185.055 85.10125 -184.375 84.1875 C-183.715 84.1875 -183.055 84.1875 -182.375 84.1875 C-182.16617188 83.66414063 -181.95734375 83.14078125 -181.7421875 82.6015625 C-179.78939957 79.15349696 -177.19047489 76.45298622 -174.5 73.5625 C-173.97019531 72.97726563 -173.44039063 72.39203125 -172.89453125 71.7890625 C-170.18939268 68.86241134 -168.01043404 66.89530855 -164.375 65.1875 C-163.88 63.7025 -163.88 63.7025 -163.375 62.1875 C-160.39818297 59.40951616 -157.1660455 56.94954871 -153.96191406 54.43896484 C-152.45861427 53.2534395 -150.97474819 52.04339181 -149.4921875 50.83203125 C-107.3528436 17.10955369 -53.65171662 -0.09382405 0 0 Z " fill="#F9FBF9" transform="translate(254.375,11.8125)"/>
<path d="M0 0 C1.12382584 0.00190338 1.12382584 0.00190338 2.27035522 0.00384521 C70.27118687 0.22250031 130.00469928 26.45320596 178.3125 73.6875 C183.46912729 78.91052163 188.14168921 84.37974765 192.625 90.1875 C193.25075928 90.9906665 193.25075928 90.9906665 193.88916016 91.81005859 C219.77008331 125.22799754 235.73738258 163.77394941 242.4375 205.375 C242.60511841 206.41321899 242.60511841 206.41321899 242.77612305 207.47241211 C252.33950029 272.20266142 236.96659875 338.40045272 198.625 391.1875 C193.68034086 397.80154865 188.24769643 403.89837285 182.62890625 409.9375 C180.60171183 412.01665215 180.60171183 412.01665215 179.625 414.1875 C178.965 414.1875 178.305 414.1875 177.625 414.1875 C177.25375 415.05375 177.25375 415.05375 176.875 415.9375 C175.44200012 418.51689979 173.84075324 420.24871592 171.625 422.1875 C170.965 422.1875 170.305 422.1875 169.625 422.1875 C169.625 422.8475 169.625 423.5075 169.625 424.1875 C166.65279439 426.95123428 163.42646717 429.40766324 160.23681641 431.91552734 C158.70393178 433.12521061 157.18551434 434.35316012 155.66796875 435.58203125 C112.21960804 470.10646679 58.29752703 488.38346463 2.9375 488.4375 C1.85476303 488.43901062 1.85476303 488.43901062 0.75015259 488.44055176 C-12.4700446 488.42817006 -25.3289317 487.41574754 -38.375 485.1875 C-39.67002441 484.9706958 -39.67002441 484.9706958 -40.99121094 484.74951172 C-64.9085132 480.63573573 -87.92145318 473.48918827 -109.41796875 462.2109375 C-111.33386666 461.20901085 -113.25930663 460.22801148 -115.1875 459.25 C-127.8394511 452.75984133 -139.41424959 444.85835451 -150.69921875 436.23046875 C-153.77143285 433.88482207 -156.90039145 431.62365366 -160.046875 429.37890625 C-160.48515625 428.98574219 -160.9234375 428.59257812 -161.375 428.1875 C-161.375 427.5275 -161.375 426.8675 -161.375 426.1875 C-161.95822021 425.92807617 -162.54144043 425.66865234 -163.14233398 425.40136719 C-167.20479823 423.19266602 -170.20195269 419.69684071 -173.4375 416.4375 C-174.19538818 415.67614746 -174.95327637 414.91479492 -175.73413086 414.13037109 C-182.20014433 407.53997156 -187.91482011 400.61915915 -193.375 393.1875 C-194.07753906 392.25679688 -194.78007812 391.32609375 -195.50390625 390.3671875 C-227.25424477 347.74344538 -241.65545846 297.54140748 -241.5625 244.625 C-241.56156342 243.92751648 -241.56062683 243.23003296 -241.55966187 242.51141357 C-241.40337818 188.45573643 -225.11849931 136.85507703 -191.64453125 94.125 C-189.80868536 91.74882769 -188.068333 89.35256097 -186.375 86.875 C-185.715 85.988125 -185.055 85.10125 -184.375 84.1875 C-183.715 84.1875 -183.055 84.1875 -182.375 84.1875 C-182.16617188 83.66414063 -181.95734375 83.14078125 -181.7421875 82.6015625 C-179.78939957 79.15349696 -177.19047489 76.45298622 -174.5 73.5625 C-173.97019531 72.97726563 -173.44039063 72.39203125 -172.89453125 71.7890625 C-170.18939268 68.86241134 -168.01043404 66.89530855 -164.375 65.1875 C-163.88 63.7025 -163.88 63.7025 -163.375 62.1875 C-160.39818297 59.40951616 -157.1660455 56.94954871 -153.96191406 54.43896484 C-152.45861427 53.2534395 -150.97474819 52.04339181 -149.4921875 50.83203125 C-107.3528436 17.10955369 -53.65171662 -0.09382405 0 0 Z M-56.375 56.1875 C-57.12587891 56.41808105 -57.87675781 56.64866211 -58.65039062 56.88623047 C-82.55325158 64.37354611 -105.61639158 76.50639219 -124.375 93.1875 C-125.18710938 93.89132813 -125.99921875 94.59515625 -126.8359375 95.3203125 C-138.26440719 105.3788079 -148.31289659 115.97074807 -157.375 128.1875 C-158.01050781 129.03957031 -158.64601562 129.89164062 -159.30078125 130.76953125 C-180.16092659 159.68600858 -194.35491734 196.45707449 -194.578125 232.39453125 C-194.58864647 233.53273064 -194.58864647 233.53273064 -194.59938049 234.69392395 C-194.61678979 237.12934368 -194.62323277 239.56452033 -194.625 242 C-194.62567474 242.83174744 -194.62634949 243.66349487 -194.62704468 244.52044678 C-194.61137627 256.65951289 -194.22586712 268.33623677 -191.375 280.1875 C-191.20339355 280.9398291 -191.03178711 281.6921582 -190.85498047 282.46728516 C-189.55342998 288.10035843 -188.03932968 293.65130778 -186.375 299.1875 C-186.13297852 299.99300293 -185.89095703 300.79850586 -185.64160156 301.62841797 C-174.07547283 339.14762964 -148.55145022 373.61303554 -116.375 396.1875 C-115.34761719 396.909375 -114.32023437 397.63125 -113.26171875 398.375 C-98.45026358 408.30843101 -82.39173127 416.80556793 -65.375 422.1875 C-63.58090544 422.86863905 -61.78915058 423.55597846 -60 424.25 C-11.62399833 441.71324369 42.76617738 435.74102476 88.76171875 414.28515625 C107.26975606 405.40032272 123.73609134 394.36741301 138.625 380.1875 C139.2221582 379.62289063 139.81931641 379.05828125 140.43457031 378.4765625 C153.88340389 365.68457871 164.19273583 352.12822671 173.625 336.1875 C174.24246094 335.20265625 174.85992187 334.2178125 175.49609375 333.203125 C179.40052894 326.85526908 182.13716379 320.57690991 184.5 313.51171875 C185.49563755 310.56974806 186.60636044 307.73514713 187.8125 304.875 C189.42762094 300.94139899 190.44533139 297.07751345 191.23046875 292.90234375 C191.625 291.1875 191.625 291.1875 192.625 290.1875 C192.97882661 288.8002544 193.28236887 287.40007743 193.5625 285.99609375 C193.73523438 285.13306641 193.90796875 284.27003906 194.0859375 283.38085938 C194.26382812 282.47142578 194.44171875 281.56199219 194.625 280.625 C194.80289062 279.74263672 194.98078125 278.86027344 195.1640625 277.95117188 C196.80370792 269.67340975 197.78189946 261.6430316 197.86328125 253.2109375 C197.87804001 251.95193382 197.87804001 251.95193382 197.89309692 250.66749573 C198.1542438 224.68259888 198.1542438 224.68259888 193.625 199.1875 C193.35703613 198.17365234 193.08907227 197.15980469 192.81298828 196.11523438 C190.05617503 185.81695384 187.15138988 175.85404603 182.625 166.1875 C181.97755018 164.72076457 181.33173059 163.2533085 180.6875 161.78515625 C171.59978888 141.59097968 158.84039396 122.39410217 142.625 107.1875 C137.625 102.1875 137.625 102.1875 136.140625 100.5625 C119.35544418 82.73752921 97.77473619 71.75128937 75.625 62.1875 C74.91811035 61.87651367 74.2112207 61.56552734 73.48291016 61.24511719 C32.36092235 43.22501942 -13.93881471 43.02701507 -56.375 56.1875 Z " fill="#FBFCFA" transform="translate(254.375,11.8125)"/>
<path d="M0 0 C1.55460937 0.40992187 1.55460937 0.40992187 3.140625 0.828125 C31.75378885 8.89850455 57.48768055 23.9239044 80 43 C81.36898437 44.15242188 81.36898437 44.15242188 82.765625 45.328125 C86.9526101 48.94545226 90.70909499 52.73711049 94.2734375 56.96875 C95.41299459 58.3094054 96.58494784 59.6232632 97.7890625 60.90625 C108.40805036 72.26813002 116.80881755 85.53897369 124.06103516 99.24072266 C124.88383606 100.78235119 125.74188171 102.30506198 126.60546875 103.82421875 C134.87163836 119.0047179 139.84292656 137.04694811 143 154 C143.17587646 154.88107422 143.35175293 155.76214844 143.53295898 156.66992188 C145.19521724 165.9354041 145.33888013 175.07188054 145.31567383 184.45410156 C145.31252967 187.10003544 145.33600127 189.74482962 145.36132812 192.390625 C145.44905475 216.04711357 140.99050144 240.32864249 130.98046875 261.8828125 C130.35178434 263.24037007 129.74772409 264.60976642 129.17578125 265.9921875 C121.43000277 284.56803634 109.60982589 302.08615662 95.53955078 316.4296875 C93.82379507 318.17972567 92.12986416 319.94982741 90.43359375 321.71875 C54.92399953 358.37826631 3.13279823 379.02668709 -47.63720703 380.41918945 C-68.45706729 380.56168713 -90.04554074 377.50421134 -109.77416992 370.75 C-111.85327232 370.04944032 -113.9400345 369.40593989 -116.04296875 368.78125 C-144.10761558 360.23293946 -168.90862699 344.17958108 -190 324 C-190.928125 323.12472656 -191.85625 322.24945313 -192.8125 321.34765625 C-225.38394013 289.84033987 -246.39238655 243.83082757 -247.3359375 198.3828125 C-247.37657553 195.29659618 -247.38284448 192.21144683 -247.375 189.125 C-247.37445618 188.31562988 -247.37391235 187.50625977 -247.37335205 186.67236328 C-247.33070023 172.80267518 -246.25518568 159.52611399 -243 146 C-242.78569336 145.10474609 -242.57138672 144.20949219 -242.35058594 143.28710938 C-233.59616188 107.9380958 -216.015367 78.23388058 -191 52 C-190.16210938 51.09765625 -189.32421875 50.1953125 -188.4609375 49.265625 C-160.30193787 19.83053777 -120.61429955 2.26372645 -81 -5 C-79.79472656 -5.22558594 -78.58945313 -5.45117188 -77.34765625 -5.68359375 C-51.35548707 -9.70586113 -25.16891268 -7.02137049 0 0 Z M-89 22 C-89.8677002 22.21430664 -90.73540039 22.42861328 -91.62939453 22.64941406 C-122.69714278 30.40647132 -148.92370368 46.0059024 -172 68 C-172.84175781 68.77730469 -173.68351562 69.55460937 -174.55078125 70.35546875 C-194.24136319 89.10391758 -209.60553813 115.64160788 -216 142 C-216.34675781 143.21429688 -216.69351563 144.42859375 -217.05078125 145.6796875 C-228.68261427 186.91361655 -221.80556552 232.02056271 -201.07421875 269.15429688 C-195.28067905 279.10865145 -188.56659284 288.31806349 -181 297 C-180.15824219 297.97582031 -179.31648438 298.95164062 -178.44921875 299.95703125 C-149.42191 332.99213908 -105.49945369 352.06009813 -62 355 C-47.35689468 355.65308732 -33.35738985 354.89518857 -19 352 C-17.88383301 351.79117188 -17.88383301 351.79117188 -16.74511719 351.578125 C14.86269461 345.659367 44.40387564 330.83385319 68 309 C68.51256348 308.52594727 69.02512695 308.05189453 69.55322266 307.56347656 C91.11409328 287.35901752 106.55515025 260.9540324 114.31933594 232.48535156 C114.77374604 230.82613532 115.24585526 229.17166694 115.73535156 227.52246094 C122.76394972 203.52891965 122.79522732 175.14159635 116.50390625 150.94970703 C116.05864183 149.22689614 115.68034319 147.48707886 115.3125 145.74609375 C109.38930714 118.53642654 94.84567183 93.26100984 75.43603516 73.47119141 C73.92096056 71.91902556 72.43535186 70.34158464 70.94921875 68.76171875 C54.26289868 51.27027795 33.86345475 39.83669866 12 30 C11.08863281 29.57847656 10.17726563 29.15695313 9.23828125 28.72265625 C-20.60533674 15.75396362 -57.78813981 13.91555603 -89 22 Z " fill="#1E3347" transform="translate(307,66)"/>
<path d="M0 0 C0.75697174 -0.0066568 1.51394348 -0.0133136 2.29385376 -0.02017212 C3.89249245 -0.03027849 5.49117315 -0.03498976 7.08984375 -0.03466797 C9.52415202 -0.03903575 11.95663793 -0.07535794 14.390625 -0.11328125 C15.9479105 -0.11915115 17.50520457 -0.12311938 19.0625 -0.125 C20.14559952 -0.14655655 20.14559952 -0.14655655 21.25057983 -0.16854858 C27.24901298 -0.11485069 30.80935493 1.95044944 34.95703125 6.15234375 C35.41722656 6.72855469 35.87742188 7.30476563 36.3515625 7.8984375 C39.50491374 12.32114618 39.50491374 12.32114618 44.0625658 14.70952511 C45.14181843 14.70864564 45.14181843 14.70864564 46.24287415 14.70774841 C47.48555557 14.71788467 47.48555557 14.71788467 48.75334167 14.72822571 C50.1116082 14.7166468 50.1116082 14.7166468 51.49731445 14.70483398 C52.93192017 14.7104837 52.93192017 14.7104837 54.39550781 14.71624756 C56.47441439 14.72268831 58.5533504 14.72234226 60.63225746 14.71606255 C63.92342995 14.70697301 67.21403018 14.71715261 70.50517273 14.73268127 C79.86305822 14.77283688 89.22090015 14.77398445 98.57885742 14.77172852 C104.30123419 14.77167741 110.02330342 14.79085044 115.74559593 14.82106209 C118.98630444 14.83189408 122.22642752 14.81975099 125.46711731 14.80723572 C127.45895974 14.81614103 129.45079741 14.82621573 131.44262695 14.83764648 C132.34206528 14.82790298 133.2415036 14.81815948 134.16819763 14.80812073 C140.9206279 14.88539304 144.41227138 16.88163731 149.4765625 21.3984375 C152.70538689 25.10560625 152.33477982 29.13118655 152.37280273 33.78564453 C152.38258652 34.54215805 152.3923703 35.29867157 152.40245056 36.07810974 C152.4323764 38.58330538 152.45378616 41.08844754 152.47265625 43.59375 C152.47922808 44.45133785 152.4857999 45.3089257 152.49257088 46.19250107 C152.52515765 50.7350881 152.54960604 55.2776518 152.5690918 59.8203125 C152.58687674 63.57033672 152.6216519 67.31960499 152.67163086 71.06933594 C152.73201099 75.60515572 152.76259214 80.14027682 152.77226448 84.67647934 C152.78079269 86.39959723 152.79954557 88.12269778 152.8290081 89.84558487 C153.09018066 105.99221398 153.09018066 105.99221398 148.13832092 112.70895386 C141.22644796 118.40501883 133.75770814 117.77491747 125.18579102 117.75585938 C123.76917861 117.76320702 122.35257217 117.77179527 120.93597412 117.78152466 C117.10327571 117.8036747 113.27079269 117.80667469 109.43803906 117.80477715 C106.23234918 117.80465716 103.02670448 117.81323261 99.82102722 117.82155466 C92.25557256 117.84076473 84.69022822 117.84368107 77.12475586 117.83691406 C69.33281252 117.83027253 61.54134246 117.85314734 53.74949509 117.89022779 C47.04692127 117.92096133 40.34449944 117.93228096 33.64185661 117.92839098 C29.64421085 117.9263275 25.64693364 117.9317404 21.64935493 117.95628357 C17.88900853 117.9786095 14.12943006 117.97662538 10.36907959 117.95635605 C8.34054372 117.95134197 6.31199314 117.97092151 4.28355408 117.99136353 C-2.92023572 117.92522901 -8.51542334 117.55560693 -13.8359375 112.3359375 C-18.1645476 107.34261165 -18.42197473 102.22456567 -18.38525391 95.83984375 C-18.39547577 94.91372284 -18.40569763 93.98760193 -18.41622925 93.03341675 C-18.44391028 89.98815692 -18.44211714 86.94380777 -18.4375 83.8984375 C-18.44527895 81.77286444 -18.45394933 79.64729448 -18.46347046 77.52172852 C-18.4783701 73.07330227 -18.47782982 68.62519357 -18.46728516 64.17675781 C-18.45568675 58.48357014 -18.48958852 52.79168191 -18.5359745 47.09870911 C-18.56547153 42.71138953 -18.56718993 38.32438237 -18.56095505 33.9369812 C-18.56197998 31.83826113 -18.57242773 29.73952323 -18.59257889 27.64089966 C-18.61732602 24.70375593 -18.60372189 21.76913619 -18.58056641 18.83203125 C-18.60349762 17.53977127 -18.60349762 17.53977127 -18.62689209 16.22140503 C-18.5309655 10.70139093 -17.2816509 7.77458664 -13.51288414 3.72865295 C-9.27093937 0.20568932 -5.35379699 0.01641016 0 0 Z " fill="#1C3246" transform="translate(188.8359375,262.6640625)"/>
<path d="M0 0 C0.93972656 -0.00128906 1.87945312 -0.00257812 2.84765625 -0.00390625 C3.83636719 -0.00003906 4.82507813 0.00382812 5.84375 0.0078125 C7.32681641 0.00201172 7.32681641 0.00201172 8.83984375 -0.00390625 C10.24943359 -0.00197266 10.24943359 -0.00197266 11.6875 0 C12.55568359 0.00112793 13.42386719 0.00225586 14.31835938 0.00341797 C16.34375 0.1328125 16.34375 0.1328125 17.34375 1.1328125 C17.33214844 2.04546875 17.32054687 2.958125 17.30859375 3.8984375 C17.28006496 7.53382073 17.42209504 10.60985102 18.34375 14.1328125 C21.3111475 16.90598034 24.38252422 18.29310565 28.34375 19.1328125 C31.5112528 18.73904616 32.63104524 17.92931171 35.34375 16.0078125 C38.34375 14.1328125 38.34375 14.1328125 40.3046875 14.2109375 C43.19694744 15.51854927 44.2373384 17.37637197 45.96875 20.0078125 C46.85433594 21.33425781 46.85433594 21.33425781 47.7578125 22.6875 C48.54285156 23.89792969 48.54285156 23.89792969 49.34375 25.1328125 C50.33375 26.6178125 50.33375 26.6178125 51.34375 28.1328125 C51.78125 30.63671875 51.78125 30.63671875 51.34375 33.1328125 C49.15625 34.66015625 49.15625 34.66015625 46.34375 36.0703125 C42.82345026 38.35022132 41.55563528 39.40851939 40.36328125 43.484375 C40.1462521 47.37452008 40.25550855 50.38692355 41.34375 54.1328125 C43.5209534 56.4074394 45.4336837 57.59572368 48.27734375 58.921875 C50.34375 60.1328125 50.34375 60.1328125 51.37109375 61.83203125 C51.32723481 65.52244801 49.34184918 68.2600819 47.46875 71.3203125 C47.09105469 71.96162109 46.71335937 72.60292969 46.32421875 73.26367188 C43.56724838 77.90931412 43.56724838 77.90931412 42.34375 79.1328125 C37.57811984 79.99929071 34.72369082 77.75902081 30.91796875 75.2265625 C30.39847656 74.865625 29.87898438 74.5046875 29.34375 74.1328125 C28.72886719 74.5659375 28.11398437 74.9990625 27.48046875 75.4453125 C26.67222656 76.0021875 25.86398437 76.5590625 25.03125 77.1328125 C24.23074219 77.6896875 23.43023437 78.2465625 22.60546875 78.8203125 C20.34375 80.1328125 20.34375 80.1328125 17.34375 80.1328125 C17.35535156 81.20402344 17.36695313 82.27523437 17.37890625 83.37890625 C17.38828299 84.77603993 17.39738331 86.17317549 17.40625 87.5703125 C17.41462891 88.27736328 17.42300781 88.98441406 17.43164062 89.71289062 C17.44028588 91.51974809 17.39595011 93.32668853 17.34375 95.1328125 C15.04365227 97.43291023 9.49584334 96.31818615 6.40625 96.3203125 C5.47361328 96.33255859 4.54097656 96.34480469 3.58007812 96.35742188 C2.24299805 96.36032227 2.24299805 96.36032227 0.87890625 96.36328125 C0.057854 96.36739014 -0.76319824 96.37149902 -1.60913086 96.37573242 C-3.65625 96.1328125 -3.65625 96.1328125 -5.65625 94.1328125 C-5.6328125 90.875 -5.6328125 90.875 -5.28125 87.0078125 C-5.17039063 85.72648437 -5.05953125 84.44515625 -4.9453125 83.125 C-4.84992188 82.13757813 -4.75453125 81.15015625 -4.65625 80.1328125 C-5.57664063 80.02066406 -6.49703125 79.90851563 -7.4453125 79.79296875 C-11.82397182 78.89273344 -13.43124814 77.12745708 -16.65625 74.1328125 C-19.41307069 75.15677447 -21.75336187 76.19676422 -24.21875 77.8203125 C-26.65625 79.1328125 -26.65625 79.1328125 -28.65893555 78.90356445 C-32.09753428 77.57662933 -33.59220436 74.32701606 -35.46875 71.3203125 C-35.88833984 70.69060547 -36.30792969 70.06089844 -36.74023438 69.41210938 C-39.73309236 64.71327303 -39.73309236 64.71327303 -39.37548828 62.01196289 C-38.39186929 59.44206629 -37.06684965 58.75855262 -34.71875 57.3828125 C-34.00847656 56.95484375 -33.29820312 56.526875 -32.56640625 56.0859375 C-30.65625 55.1328125 -30.65625 55.1328125 -28.65625 55.1328125 C-28.49247484 49.98372142 -28.54795085 45.18114164 -29.65625 40.1328125 C-31.84986429 37.80867606 -33.72207176 36.70154393 -36.625 35.40625 C-38.65625 34.1328125 -38.65625 34.1328125 -39.6796875 31.90625 C-39.64681207 28.01599032 -37.88177021 25.50900478 -35.78125 22.3828125 C-35.40355469 21.79371094 -35.02585938 21.20460937 -34.63671875 20.59765625 C-31.92821631 16.40477881 -31.92821631 16.40477881 -30.65625 15.1328125 C-25.36227769 15.43823398 -22.52227713 16.50109005 -18.65625 20.1328125 C-16.04887939 18.88127461 -13.57414494 17.48974337 -11.09375 16.0078125 C-7.65625 14.1328125 -7.65625 14.1328125 -4.65625 14.1328125 C-4.74003906 13.20597656 -4.82382813 12.27914062 -4.91015625 11.32421875 C-5.06291016 9.52791016 -5.06291016 9.52791016 -5.21875 7.6953125 C-5.37537109 5.90287109 -5.37537109 5.90287109 -5.53515625 4.07421875 C-5.59509766 2.61822266 -5.59509766 2.61822266 -5.65625 1.1328125 C-4.03424485 -0.48919265 -2.23601969 0.002905 0 0 Z " fill="#1E3347" transform="translate(249.65625,119.8671875)"/>
<path d="M0 0 C0.86370712 -0.00287018 1.72741425 -0.00574036 2.61729431 -0.00869751 C4.43342753 -0.01072892 6.2495831 -0.00526399 8.06567383 0.00732422 C10.83529792 0.0234111 13.60346728 0.0074343 16.37304688 -0.01171875 C18.14453445 -0.00973654 19.91602112 -0.00589332 21.6875 0 C22.50952408 -0.00607269 23.33154816 -0.01214539 24.17848206 -0.0184021 C30.42502821 0.05754498 34.54554973 1.43881348 39.33984375 5.6484375 C41.77734375 8.3984375 41.77734375 8.3984375 42.82131481 10.16707706 C43.99880172 12.15102629 45.13848499 13.76993439 46.77734375 15.3984375 C49.85154247 16.11920383 51.89369888 16.34896698 54.96411133 16.28491211 C56.17952606 16.30107574 56.17952606 16.30107574 57.41949463 16.31756592 C60.08788737 16.34489446 62.75347456 16.32310614 65.421875 16.30078125 C67.27562715 16.31016694 69.12936608 16.3226251 70.983078 16.33802795 C75.85445749 16.37026321 80.72489589 16.3608082 85.59631348 16.34265137 C90.57017326 16.33149603 95.54379172 16.35979434 100.51757812 16.38476562 C110.27110344 16.42792257 120.02375459 16.42338759 129.77734375 16.3984375 C129.44734375 22.3384375 129.11734375 28.2784375 128.77734375 34.3984375 C116.08612017 34.55654354 103.3955499 34.68498379 90.70356464 34.7611227 C84.81022385 34.79766454 78.91759132 34.8472338 73.0246582 34.92651367 C67.33822351 35.00253723 61.65247027 35.04442062 55.96556664 35.0625782 C53.79533342 35.07551871 51.62513778 35.10078911 49.45519447 35.1385479 C46.41632967 35.18932654 43.38028482 35.1963629 40.34106445 35.19311523 C39.44266846 35.21828217 38.54427246 35.2434491 37.61865234 35.26937866 C31.61350977 35.19988 31.61350977 35.19988 29.18053246 32.86793709 C27.86320496 30.99330139 27.86320496 30.99330139 26.82173443 29.12757969 C24.04121716 24.52402489 18.71335055 22.74305652 13.77734375 21.3984375 C10.83080961 21.10183454 7.90134399 21.07076558 4.94140625 21.0625 C4.10322357 21.0558432 3.26504089 21.0491864 2.40145874 21.04232788 C0.63484885 21.03224025 -1.13179884 21.02750965 -2.8984375 21.02783203 C-5.58267817 21.02346189 -8.26526875 20.98711097 -10.94921875 20.94921875 C-12.67317152 20.9433489 -14.39713202 20.93938063 -16.12109375 20.9375 C-16.91405853 20.92312897 -17.70702332 20.90875793 -18.52401733 20.89395142 C-26.17522239 20.95583028 -32.78624467 23.96202592 -38.22265625 29.3984375 C-42.01712719 35.60291025 -43.33380494 40.82990821 -43.42797852 48.09472656 C-43.44282791 49.09046692 -43.44282791 49.09046692 -43.45797729 50.10632324 C-43.48946885 52.29220052 -43.51430062 54.4780995 -43.5390625 56.6640625 C-43.5596427 58.18292799 -43.58063946 59.70178788 -43.60203552 61.22064209 C-43.65714609 65.21215275 -43.70660378 69.20371415 -43.75488281 73.1953125 C-43.80517842 77.2708791 -43.86082236 81.3463723 -43.91601562 85.421875 C-44.02346241 93.41400038 -44.12493712 101.40618729 -44.22265625 109.3984375 C-49.6729465 107.81002418 -51.91061826 106.09049132 -55.22265625 101.3984375 C-57.19919298 97.38746393 -57.48928339 94.07378678 -57.52905273 89.6237793 C-57.53737625 88.96290314 -57.54569977 88.30202698 -57.55427551 87.62112427 C-57.57827686 85.44657413 -57.58713571 83.2723246 -57.59375 81.09765625 C-57.60272453 79.57696955 -57.61184652 78.05628372 -57.62110901 76.53559875 C-57.63757522 73.35061503 -57.64529466 70.16573612 -57.64819336 66.98071289 C-57.65357191 62.91534169 -57.69123886 58.8509666 -57.73693752 54.78587627 C-57.76679891 51.64498876 -57.77391888 48.50433839 -57.77491951 45.3633213 C-57.77910459 43.86549128 -57.79146978 42.36765943 -57.81243706 40.86997032 C-57.9937487 26.7980451 -57.9937487 26.7980451 -53.65382385 20.83912659 C-49.44436101 16.6016584 -44.94387561 15.21213281 -39.06640625 15.0078125 C-37.28473223 15.03401359 -35.50325191 15.08114755 -33.72265625 15.1484375 C-32.3459375 15.17550781 -32.3459375 15.17550781 -30.94140625 15.203125 C-28.70069533 15.24980648 -26.46225826 15.31525228 -24.22265625 15.3984375 C-23.94808594 14.64820313 -23.67351562 13.89796875 -23.390625 13.125 C-22.31330903 10.61006173 -21.2735719 8.85953628 -19.53515625 6.7734375 C-19.07753906 6.20367187 -18.61992187 5.63390625 -18.1484375 5.046875 C-12.673778 0.3606553 -6.88980614 -0.05102401 0 0 Z " fill="#1E3347" transform="translate(203.22265625,231.6015625)"/>
<path d="M0 0 C1.90072266 0.02126953 1.90072266 0.02126953 3.83984375 0.04296875 C5.74443359 0.05263672 5.74443359 0.05263672 7.6875 0.0625 C10.77734375 0.23046875 10.77734375 0.23046875 11.77734375 1.23046875 C11.84960877 3.08334377 11.86115595 4.93880753 11.83984375 6.79296875 C11.83082031 7.80488281 11.82179687 8.81679687 11.8125 9.859375 C11.80089844 10.64183594 11.78929687 11.42429688 11.77734375 12.23046875 C12.70546875 12.37484375 13.63359375 12.51921875 14.58984375 12.66796875 C17.77734375 13.23046875 17.77734375 13.23046875 20.77734375 14.23046875 C21.04546875 13.63234375 21.31359375 13.03421875 21.58984375 12.41796875 C22.80227871 10.18453592 23.72386648 8.73108676 25.77734375 7.23046875 C29.17619871 7.65710326 31.02386918 9.03021289 33.52734375 11.29296875 C34.1409375 11.84082031 34.75453125 12.38867188 35.38671875 12.953125 C36.07507813 13.58541016 36.07507813 13.58541016 36.77734375 14.23046875 C36.17394264 17.56320743 35.8564679 18.16076414 33.15234375 20.54296875 C30.32670129 23.11014505 30.32670129 23.11014505 30.96484375 27.04296875 C31.23296875 28.09484375 31.50109375 29.14671875 31.77734375 30.23046875 C32.84275391 30.32134766 32.84275391 30.32134766 33.9296875 30.4140625 C34.84878906 30.49785156 35.76789063 30.58164063 36.71484375 30.66796875 C38.08962891 30.78978516 38.08962891 30.78978516 39.4921875 30.9140625 C41.77734375 31.23046875 41.77734375 31.23046875 42.77734375 32.23046875 C42.84960877 34.08334377 42.86115595 35.93880753 42.83984375 37.79296875 C42.83082031 38.80488281 42.82179688 39.81679687 42.8125 40.859375 C42.80089844 41.64183594 42.78929687 42.42429688 42.77734375 43.23046875 C38.98695009 45.36046872 36.11998237 45.39749331 31.77734375 45.23046875 C31.35902971 48.52046157 31.35902971 48.52046157 31.77734375 52.23046875 C33.40386691 53.9363345 35.06740941 55.60822335 36.77734375 57.23046875 C36.49949028 60.62722741 34.94899747 62.5086391 32.71484375 64.98046875 C32.16699219 65.5940625 31.61914062 66.20765625 31.0546875 66.83984375 C30.42240234 67.52820313 30.42240234 67.52820313 29.77734375 68.23046875 C26.3879797 67.84311286 24.99395775 67.43537389 22.46484375 65.04296875 C20.02511949 62.98741023 20.02511949 62.98741023 17.68359375 63.4140625 C15.68784783 63.92353989 13.72806244 64.56920818 11.77734375 65.23046875 C11.80054688 65.92914063 11.82375 66.6278125 11.84765625 67.34765625 C11.86570313 68.25773437 11.88375 69.1678125 11.90234375 70.10546875 C11.92554688 71.01039063 11.94875 71.9153125 11.97265625 72.84765625 C11.77734375 75.23046875 11.77734375 75.23046875 9.77734375 77.23046875 C6.80859375 77.49609375 6.80859375 77.49609375 3.27734375 77.48046875 C2.11203125 77.485625 0.94671875 77.49078125 -0.25390625 77.49609375 C-3.22265625 77.23046875 -3.22265625 77.23046875 -5.22265625 75.23046875 C-5.41796875 72.84765625 -5.41796875 72.84765625 -5.34765625 70.10546875 C-5.32960937 69.19539063 -5.3115625 68.2853125 -5.29296875 67.34765625 C-5.26976562 66.64898437 -5.2465625 65.9503125 -5.22265625 65.23046875 C-5.96515625 64.94171875 -6.70765625 64.65296875 -7.47265625 64.35546875 C-10.22265625 63.23046875 -10.22265625 63.23046875 -12.16015625 61.91796875 C-14.42187328 60.89856415 -14.42187328 60.89856415 -17.22265625 62.66796875 C-18.70765625 63.44140625 -18.70765625 63.44140625 -20.22265625 64.23046875 C-23.09498965 64.03784679 -24.0174916 63.45776352 -25.9609375 61.3046875 C-26.48042969 60.51707031 -26.99992188 59.72945312 -27.53515625 58.91796875 C-28.06753906 58.13808594 -28.59992188 57.35820312 -29.1484375 56.5546875 C-30.22265625 54.23046875 -30.22265625 54.23046875 -30.04296875 52.078125 C-28.78573699 49.24636013 -26.73676704 47.94742246 -24.22265625 46.23046875 C-23.56265625 46.23046875 -22.90265625 46.23046875 -22.22265625 46.23046875 C-22.55265625 45.57046875 -22.88265625 44.91046875 -23.22265625 44.23046875 C-23.29331242 42.1899187 -23.30687601 40.14712618 -23.28515625 38.10546875 C-23.27613281 37.00976562 -23.26710937 35.9140625 -23.2578125 34.78515625 C-23.24621094 33.94210938 -23.23460937 33.0990625 -23.22265625 32.23046875 C-23.8465625 31.93398437 -24.47046875 31.6375 -25.11328125 31.33203125 C-27.26062717 30.21063949 -28.6036146 29.01141457 -30.22265625 27.23046875 C-28.81097878 21.96876181 -26.47415393 18.50875517 -23.22265625 14.23046875 C-16.44512816 15.1428283 -16.44512816 15.1428283 -14.16015625 16.04296875 C-11.95079243 16.40933418 -11.95079243 16.40933418 -9.03515625 14.91796875 C-5.87913109 11.90221138 -5.80221519 11.24592748 -5.47265625 7.10546875 C-5.4571875 6.23664063 -5.44171875 5.3678125 -5.42578125 4.47265625 C-5.07775976 0.63103442 -3.67676881 0.26294468 0 0 Z " fill="#203549" transform="translate(159.22265625,159.76953125)"/>
<path d="M0 0 C1.26714844 -0.01417969 2.53429687 -0.02835938 3.83984375 -0.04296875 C7.0625 0.1875 7.0625 0.1875 9.0625 2.1875 C9.265625 4.4296875 9.265625 4.4296875 9.3125 7.0625 C9.64465929 11.16110834 9.72842517 11.86101778 12.8125 14.875 C16.39513456 16.32183319 17.47672613 16.35287651 21.0625 15.1875 C23.06147128 14.84805205 25.06125639 14.51328384 27.0625 14.1875 C33.99468085 21.96675532 33.99468085 21.96675532 34.25 26.5625 C32.92022773 29.50199659 31.87835623 30.65157842 29.0625 32.1875 C28.4025 32.1875 27.7425 32.1875 27.0625 32.1875 C26.61296579 40.70153098 26.61296579 40.70153098 29.6875 48.23046875 C31.79292281 49.7540362 31.79292281 49.7540362 35.0625 51.1875 C34.34533538 54.91675601 33.18996981 58.0296064 31.0625 61.1875 C27.91015625 61.74609375 27.91015625 61.74609375 24.125 61.625 C16.05738589 61.71783228 10.45772293 64.12140473 4.0625 69.1875 C2.0590075 71.27084184 0.26376712 73.34878184 -1.4375 75.68359375 C-1.9325 76.17988281 -2.4275 76.67617187 -2.9375 77.1875 C-4.2575 77.1875 -5.5775 77.1875 -6.9375 77.1875 C-7.89820434 74.30538698 -8.04331883 72.48899956 -8 69.5 C-7.99097656 68.69175781 -7.98195313 67.88351563 -7.97265625 67.05078125 C-7.96105469 66.43589844 -7.94945312 65.82101563 -7.9375 65.1875 C-13.52474667 63.82849093 -13.52474667 63.82849093 -18.87109375 65.234375 C-20.70227126 66.74907693 -20.70227126 66.74907693 -22.9375 69.1875 C-26.14793882 67.80561547 -27.98686365 66.26328097 -30.1875 63.5625 C-30.70828125 62.93085938 -31.2290625 62.29921875 -31.765625 61.6484375 C-32.15234375 61.16632813 -32.5390625 60.68421875 -32.9375 60.1875 C-31.140625 56.34375 -31.140625 56.34375 -29.3125 54.9375 C-27.00059893 51.99508046 -27.7583109 48.83101176 -27.9375 45.1875 C-29.00291016 45.09662109 -29.00291016 45.09662109 -30.08984375 45.00390625 C-31.00894531 44.92011719 -31.92804688 44.83632812 -32.875 44.75 C-33.79152344 44.66878906 -34.70804687 44.58757812 -35.65234375 44.50390625 C-37.9375 44.1875 -37.9375 44.1875 -38.9375 43.1875 C-39.00976502 41.33462498 -39.0213122 39.47916122 -39 37.625 C-38.99097656 36.61308594 -38.98195313 35.60117188 -38.97265625 34.55859375 C-38.96105469 33.77613281 -38.94945312 32.99367187 -38.9375 32.1875 C-35.30133344 30.2085244 -32.05324371 29.6623935 -27.9375 29.1875 C-26.9781843 26.99235127 -26.9781843 26.99235127 -26.9375 24.1875 C-28.58383943 22.1707342 -30.25017723 20.17010426 -31.9375 18.1875 C-31.58725661 14.15970101 -29.38147625 12.00327899 -26.5546875 9.33203125 C-24.9375 8.1875 -24.9375 8.1875 -22.3125 8.0625 C-19.9375 9.1875 -19.9375 9.1875 -18.125 11.3125 C-16.16100219 13.39818672 -16.16100219 13.39818672 -13.91015625 13.2265625 C-11.90624354 12.96594819 -9.9190461 12.58380922 -7.9375 12.1875 C-7.94910156 11.40503906 -7.96070313 10.62257812 -7.97265625 9.81640625 C-7.98167969 8.80449219 -7.99070312 7.79257813 -8 6.75 C-8.01160156 5.74066406 -8.02320313 4.73132813 -8.03515625 3.69140625 C-7.83805516 -1.36226579 -4.29805997 0.02181756 0 0 Z " fill="#203549" transform="translate(341.9375,159.8125)"/>
<path d="M0 0 C5.20877628 3.59772849 9.5835205 7.85478666 11.4375 13.99609375 C11.4375 15.21296875 11.4375 16.42984375 11.4375 17.68359375 C11.51871094 18.59109375 11.59992188 19.49859375 11.68359375 20.43359375 C12.17550076 28.30410587 10.66974981 33.69628349 5.4375 39.68359375 C-2.23858284 46.09338402 -8.70024651 47.36115315 -18.5625 46.68359375 C-26.09069653 45.18809343 -31.48051115 40.74268928 -35.7265625 34.50390625 C-37.94054989 30.46337927 -38.25606877 26.85869464 -38.1875 22.30859375 C-38.18057129 21.56125977 -38.17364258 20.81392578 -38.16650391 20.04394531 C-37.91187428 13.581136 -36.14833921 9.34322807 -31.5625 4.68359375 C-31.09457031 4.17570313 -30.62664062 3.6678125 -30.14453125 3.14453125 C-21.75815008 -4.88948096 -9.75403406 -5.37995941 0 0 Z " fill="#42A750" transform="translate(381.5625,235.31640625)"/>
<path d="M0 0 C1.37109169 -0.005476 1.37109169 -0.005476 2.7698822 -0.01106262 C5.79591358 -0.01917896 8.82141134 -0.00554996 11.84741211 0.0090332 C13.94583638 0.00955163 16.04426115 0.00903459 18.14268494 0.00752258 C22.54181156 0.00761235 26.9407551 0.0180523 31.33984375 0.03613281 C36.98837237 0.05883402 42.63663366 0.05936205 48.28519535 0.05261517 C52.61822399 0.04927953 56.95119128 0.05589739 61.2842083 0.0657444 C63.36749386 0.06960264 65.45078625 0.07074204 67.53407478 0.06915855 C70.44081843 0.06878915 73.34721462 0.0813724 76.25390625 0.09765625 C77.12097198 0.09517883 77.98803772 0.09270142 78.88137817 0.09014893 C84.83351409 0.14357269 84.83351409 0.14357269 87.06225586 2.37231445 C87.37475586 5.87231445 87.37475586 5.87231445 87.06225586 9.37231445 C83.13425197 11.99098372 79.79022816 11.66019351 75.23217773 11.64697266 C74.32947647 11.65208359 73.42677521 11.65719452 72.49671936 11.66246033 C69.50808106 11.67637874 66.51967275 11.67539804 63.53100586 11.6730957 C61.45739658 11.67698104 59.3837881 11.68131537 57.31018066 11.68608093 C52.9623761 11.69354773 48.61465274 11.69324827 44.2668457 11.68798828 C38.68786713 11.68218924 33.10922006 11.69913301 27.53029633 11.72233295 C23.24784391 11.73704411 18.96547186 11.73794564 14.68299866 11.73482323 C12.62564944 11.73533763 10.56829586 11.74059762 8.51097107 11.75063515 C5.6378709 11.76293322 2.76542324 11.75624813 -0.10766602 11.74462891 C-0.96178574 11.75227264 -1.81590546 11.75991638 -2.69590759 11.76779175 C-8.50610822 11.71569624 -8.50610822 11.71569624 -10.65625763 10.00517559 C-11.93774414 8.37231445 -11.93774414 8.37231445 -12.31274414 5.87231445 C-11.30185394 -0.86695353 -5.58357634 -0.04933797 0 0 Z " fill="#F4F6F5" transform="translate(227.937744140625,353.627685546875)"/>
<path d="M0 0 C5.15982576 4.3571862 8.48010142 8.10641401 9.1875 15.0625 C9.11272425 20.13790393 7.00046772 23.54265583 3.8125 27.375 C0.20661377 30.80917736 -2.70853658 31.69159901 -7.5625 32 C-13.54561642 31.77176123 -17.13510541 29.69556777 -21.1875 25.375 C-24.53498103 20.66760479 -25.06776253 15.98911881 -24.1875 10.375 C-22.42922269 5.55391706 -19.47766519 2.16360737 -15.1875 -0.625 C-10.16474272 -2.70338232 -4.73517258 -2.41400955 0 0 Z " fill="#F6F8F7" transform="translate(349.1875,183.625)"/>
<path d="M0 0 C4.7375858 2.00230041 7.51276557 4.73152427 9.97265625 9.234375 C11.69105223 13.57391877 11.55966122 17.111519 10.12109375 21.515625 C8.00030854 26.34779383 5.56703026 28.85015013 0.8203125 31.375 C-3.53931206 32.82820819 -7.73860927 33.19197376 -12.1171875 31.7265625 C-17.88908286 28.81573596 -20.16036332 24.43297253 -22.1796875 18.375 C-22.83093579 12.83938951 -21.75094357 9.62764491 -18.65625 5.17578125 C-13.51030574 -1.10009257 -7.52911843 -2.158887 0 0 Z " fill="#F6F8F7" transform="translate(169.1796875,182.625)"/>
<path d="M0 0 C4.28375023 2.74500241 6.08907574 5.74270076 8.1640625 10.38671875 C8.1640625 11.04671875 8.1640625 11.70671875 8.1640625 12.38671875 C7.5040625 12.38671875 6.8440625 12.38671875 6.1640625 12.38671875 C6.1640625 11.72671875 6.1640625 11.06671875 6.1640625 10.38671875 C5.5040625 10.38671875 4.8440625 10.38671875 4.1640625 10.38671875 C3.8340625 11.37671875 3.5040625 12.36671875 3.1640625 13.38671875 C2.6071875 13.03609375 2.0503125 12.68546875 1.4765625 12.32421875 C-1.55103355 11.09681495 -2.73993765 11.3427188 -5.8359375 12.38671875 C-7.78113932 14.2069733 -9.44661471 15.92972238 -11.1484375 17.94921875 C-11.8300293 18.72942383 -11.8300293 18.72942383 -12.52539062 19.52539062 C-13.63932993 20.80348941 -14.73908638 22.0939253 -15.8359375 23.38671875 C-19.65625 21.58984375 -19.65625 21.58984375 -21.2734375 19.76171875 C-22.79933502 18.16025435 -22.79933502 18.16025435 -25.2734375 18.07421875 C-27.91166487 18.3959538 -29.53173266 19.11543332 -31.8359375 20.38671875 C-32.4959375 20.38671875 -33.1559375 20.38671875 -33.8359375 20.38671875 C-34.18698309 13.9248796 -34.12505944 9.05761864 -30.8359375 3.38671875 C-22.3641951 -5.58336143 -10.15907274 -5.36979559 0 0 Z " fill="#3FA54C" transform="translate(381.8359375,235.61328125)"/>
<path d="M0 0 C1.13127319 -0.00945648 2.26254639 -0.01891296 3.42810059 -0.02865601 C5.26096619 -0.01954697 5.26096619 -0.01954697 7.13085938 -0.01025391 C8.38467407 -0.01312408 9.63848877 -0.01599426 10.93029785 -0.01895142 C13.58356688 -0.02099468 16.23600909 -0.01695109 18.88916016 -0.00292969 C22.28902571 0.01416273 25.68818083 0.00432043 29.08802032 -0.01364708 C32.33149215 -0.0270973 35.57487828 -0.01767874 38.81835938 -0.01025391 C40.04026978 -0.0163266 41.26218018 -0.02239929 42.52111816 -0.02865601 C44.21802795 -0.01447128 44.21802795 -0.01447128 45.94921875 0 C46.94610718 0.00238678 47.94299561 0.00477356 48.97009277 0.00723267 C51.47460938 0.38818359 51.47460938 0.38818359 53.29650879 1.72103882 C55.12176594 4.30398289 54.86544135 6.32666644 54.47460938 9.38818359 C51.09126611 11.64374577 49.91488007 11.64451341 45.94921875 11.6628418 C44.81794556 11.67237381 43.68667236 11.68190582 42.52111816 11.69172668 C40.68825256 11.69035957 40.68825256 11.69035957 38.81835938 11.68896484 C37.56454468 11.69324997 36.31072998 11.6975351 35.0189209 11.70195007 C32.36582453 11.70769766 29.7131167 11.70912368 27.06005859 11.70385742 C23.66022722 11.69805827 20.26093983 11.71500553 16.86119843 11.7382021 C13.61775593 11.75647297 10.37434409 11.75275442 7.13085938 11.75146484 C5.90894897 11.76067459 4.68703857 11.76988434 3.42810059 11.77937317 C2.29682739 11.77314438 1.1655542 11.76691559 0 11.76049805 C-0.99688843 11.76112747 -1.99377686 11.7617569 -3.02087402 11.7624054 C-5.52539062 11.38818359 -5.52539062 11.38818359 -7.34729004 10.02116394 C-9.03193391 7.68605745 -8.94696557 6.19868324 -8.52539062 3.38818359 C-6.10434876 0.03438462 -3.9951382 0.00956528 0 0 Z " fill="#F2F5F4" transform="translate(260.525390625,326.61181640625)"/>
<path d="M0 0 C1.98 0.66 3.96 1.32 6 2 C8.32694964 2.37531446 10.65976685 2.71917202 13 3 C13.07442006 8.01705721 13.12872908 13.03378972 13.16479492 18.05126953 C13.17983738 19.75640463 13.20027653 21.46150132 13.22631836 23.16650391 C13.26290284 25.62412012 13.27977173 28.08122269 13.29296875 30.5390625 C13.30845261 31.29555084 13.32393646 32.05203918 13.33988953 32.83145142 C13.34166206 38.46599017 12.1743918 42.59828542 8.28125 46.8984375 C7.39953125 47.62933594 7.39953125 47.62933594 6.5 48.375 C5.9121875 48.87773437 5.324375 49.38046875 4.71875 49.8984375 C3 51 3 51 0 51 C0 34.17 0 17.34 0 0 Z " fill="#1B3146" transform="translate(353,290)"/>
<path d="M0 0 C2.33129883 0.75268555 2.33129883 0.75268555 3.33129883 1.75268555 C3.82152442 5.58951783 3.67463379 7.26397017 1.42285156 10.46923828 C-3.79018464 15.79815166 -3.79018464 15.79815166 -5.68359375 17.65966797 C-7.22733071 19.18635783 -8.7300375 20.74665561 -10.2331543 22.31323242 C-11.2107078 23.29401003 -12.19045758 24.27260449 -13.17260742 25.2487793 C-14.05762939 26.13750732 -14.94265137 27.02623535 -15.85449219 27.94189453 C-18.66870117 29.75268555 -18.66870117 29.75268555 -22.38256836 29.64086914 C-26.00561893 28.66162263 -27.11194779 27.8691264 -29.35620117 24.94018555 C-31.24037788 22.54136915 -32.8019482 20.64275675 -35.16870117 18.69018555 C-36.66870117 16.75268555 -36.66870117 16.75268555 -36.41870117 13.00268555 C-36.17120117 11.93018555 -35.92370117 10.85768555 -35.66870117 9.75268555 C-33.46166992 8.97924805 -33.46166992 8.97924805 -30.66870117 8.75268555 C-28.28198242 10.58862305 -28.28198242 10.58862305 -25.98120117 13.12768555 C-23.15617234 16.37747427 -23.15617234 16.37747427 -19.66870117 18.75268555 C-19.40677979 18.16914307 -19.1448584 17.58560059 -18.875 16.984375 C-16.74509262 13.04398169 -13.47898395 10.11059895 -10.35620117 6.94018555 C-9.69168945 6.23442383 -9.02717773 5.52866211 -8.3425293 4.80151367 C-7.6909082 4.13958008 -7.03928711 3.47764648 -6.36791992 2.7956543 C-5.48366333 1.8833606 -5.48366333 1.8833606 -4.58154297 0.95263672 C-2.66870117 -0.24731445 -2.66870117 -0.24731445 0 0 Z " fill="#F3F5F4" transform="translate(272.668701171875,152.247314453125)"/>
<path d="M0 0 C2.27734375 0.86328125 2.27734375 0.86328125 3.27734375 1.86328125 C3.58516774 4.73941757 3.63058471 6.32420005 2.02392578 8.77612305 C1.45013184 9.36562744 0.87633789 9.95513184 0.28515625 10.5625 C-0.33746094 11.21412109 -0.96007812 11.86574219 -1.6015625 12.53710938 C-2.58962891 13.53387695 -2.58962891 13.53387695 -3.59765625 14.55078125 C-4.24863281 15.22689453 -4.89960938 15.90300781 -5.5703125 16.59960938 C-7.93065504 19.04511891 -10.31938764 21.46001264 -12.72265625 23.86328125 C-17.4889243 23.70060999 -19.81240167 21.3696333 -23.09765625 18.11328125 C-23.99226563 17.2521875 -24.886875 16.39109375 -25.80859375 15.50390625 C-27.72265625 12.86328125 -27.72265625 12.86328125 -27.57421875 10.09765625 C-26.72265625 7.86328125 -26.72265625 7.86328125 -25.72265625 6.86328125 C-23.47265625 6.48828125 -23.47265625 6.48828125 -20.72265625 6.86328125 C-17.91015625 9.36328125 -17.91015625 9.36328125 -15.72265625 11.86328125 C-10.80405145 9.93376054 -8.26288004 5.89155953 -5.0390625 1.8828125 C-2.72265625 -0.13671875 -2.72265625 -0.13671875 0 0 Z " fill="#F3F9F3" transform="translate(379.72265625,246.13671875)"/>
<path d="M0 0 C0.845625 0.309375 1.69125 0.61875 2.5625 0.9375 C6.05212851 2.01611245 9.38567053 2.52296008 13 3 C13.07442006 8.01705721 13.12872908 13.03378972 13.16479492 18.05126953 C13.17983738 19.75640463 13.20027653 21.46150132 13.22631836 23.16650391 C13.26290284 25.62412012 13.27977173 28.08122269 13.29296875 30.5390625 C13.30845261 31.29555084 13.32393646 32.05203918 13.33988953 32.83145142 C13.34166206 38.46599017 12.1743918 42.59828542 8.28125 46.8984375 C7.39953125 47.62933594 7.39953125 47.62933594 6.5 48.375 C5.9121875 48.87773437 5.324375 49.38046875 4.71875 49.8984375 C3 51 3 51 0 51 C1 49 1 49 4.0625 47.25 C5.5165625 46.13625 5.5165625 46.13625 7 45 C7.41746608 41.87364791 7.41746608 41.87364791 7 39 C7.495 38.505 7.495 38.505 8 38 C8.12667764 35.00981839 8.18520838 32.05305892 8.1875 29.0625 C8.19974609 28.22525391 8.21199219 27.38800781 8.22460938 26.52539062 C8.22654297 25.72423828 8.22847656 24.92308594 8.23046875 24.09765625 C8.23457764 23.36039307 8.23868652 22.62312988 8.24291992 21.86352539 C8.16054222 19.75402694 8.16054222 19.75402694 6 18 C6 16.68 6 15.36 6 14 C6.66 13.67 7.32 13.34 8 13 C7.34 12.01 6.68 11.02 6 10 C6 8.68 6 7.36 6 6 C5.01 6 4.02 6 3 6 C3 9.96 3 13.92 3 18 C2.67 18 2.34 18 2 18 C1.93941406 17.11957031 1.87882812 16.23914063 1.81640625 15.33203125 C1.73261719 14.17058594 1.64882813 13.00914062 1.5625 11.8125 C1.48128906 10.66394531 1.40007812 9.51539063 1.31640625 8.33203125 C1.04596188 5.48401829 0.62478253 2.78789518 0 0 Z " fill="#1A3249" transform="translate(353,290)"/>
<path d="M0 0 C0.33 1.32 0.66 2.64 1 4 C1.99 4 2.98 4 4 4 C4.04992909 8.10762763 4.08596646 12.21513448 4.10986328 16.32299805 C4.1198393 17.71658409 4.13342501 19.11014966 4.15087891 20.50366211 C4.24549371 28.2592936 4.11409413 35.48414568 2 43 C1.67 43 1.34 43 1 43 C0.97494385 41.97640381 0.9498877 40.95280762 0.92407227 39.89819336 C0.82941206 36.07565258 0.72933805 32.2532689 0.62768555 28.4309082 C0.58455714 26.78120619 0.54286799 25.13146585 0.50268555 23.48168945 C0.44444353 21.10095711 0.38090903 18.72041373 0.31640625 16.33984375 C0.29969376 15.61039047 0.28298126 14.88093719 0.26576233 14.12937927 C0.16851762 10.71550313 -0.04682546 7.41666096 -0.58227539 4.04125977 C-0.72012451 3.03764404 -0.85797363 2.03402832 -1 1 C-0.67 0.67 -0.34 0.34 0 0 Z " fill="#223950" transform="translate(448,229)"/>
<path d="M0 0 C0.845625 0.309375 1.69125 0.61875 2.5625 0.9375 C6.53231978 2.26321706 6.53231978 2.26321706 13 3 C13 14.88 13 26.76 13 39 C12.67 39 12.34 39 12 39 C12 27.45 12 15.9 12 4 C9.03 4.66 6.06 5.32 3 6 C3 9.96 3 13.92 3 18 C2.67 18 2.34 18 2 18 C1.93941406 17.11957031 1.87882812 16.23914063 1.81640625 15.33203125 C1.73261719 14.17058594 1.64882813 13.00914062 1.5625 11.8125 C1.48128906 10.66394531 1.40007812 9.51539063 1.31640625 8.33203125 C1.04596188 5.48401829 0.62478253 2.78789518 0 0 Z " fill="#445664" transform="translate(353,290)"/>
<path d="M0 0 C2.375 -0.125 2.375 -0.125 5 0 C5.66 0.66 6.32 1.32 7 2 C6.6700572 5.39770885 5.1807479 7.2681087 2.9375 9.75 C2.38964844 10.36359375 1.84179688 10.9771875 1.27734375 11.609375 C0.85582031 12.06828125 0.43429688 12.5271875 0 13 C-1.65 12.67 -3.3 12.34 -5 12 C-3.84826645 9.53199953 -2.95216435 7.95216435 -1 6 C-0.60235737 4.01178687 -0.26224651 2.01055661 0 0 Z " fill="#2A3F53" transform="translate(189,215)"/>
<path d="M0 0 C0.99 0.33 1.98 0.66 3 1 C3 4.63 3 8.26 3 12 C-0.99110319 13.9955516 -2.69986566 14.19546065 -7 14 C-7 13.01 -7 12.02 -7 11 C-7.66 11 -8.32 11 -9 11 C-9 10.34 -9 9.68 -9 9 C-6.36 9.33 -3.72 9.66 -1 10 C-1.020625 8.72125 -1.04125 7.4425 -1.0625 6.125 C-1.125 2.25 -1.125 2.25 0 0 Z " fill="#253C52" transform="translate(199,191)"/>
<path d="M0 0 C1.32 0.66 2.64 1.32 4 2 C3.29445932 5.66881155 1.72264494 8.70450534 0 12 C-2.31 11.67 -4.62 11.34 -7 11 C-7 10.34 -7 9.68 -7 9 C-6.01 9 -5.02 9 -4 9 C-3.67 6.69 -3.34 4.38 -3 2 C-2.01 2 -1.02 2 0 2 C0 1.34 0 0.68 0 0 Z " fill="#1B3550" transform="translate(373,209)"/>
<path d="M0 0 C0.66 0 1.32 0 2 0 C2 0.66 2 1.32 2 2 C2.99 2.33 3.98 2.66 5 3 C3.35 4.65 1.7 6.3 0 8 C-2.9262753 6.68822142 -4.75289234 5.24710766 -7 3 C-9.09989652 1.82425289 -9.09989652 1.82425289 -11 1 C-9.741875 0.979375 -8.48375 0.95875 -7.1875 0.9375 C-6.47980469 0.92589844 -5.77210938 0.91429687 -5.04296875 0.90234375 C-3 1 -3 1 0 2 C0 1.34 0 0.68 0 0 Z " fill="#54A767" transform="translate(366,251)"/>
<path d="M0 0 C0.66 0.66 1.32 1.32 2 2 C-1.96 2 -5.92 2 -10 2 C-10.33 2.66 -10.66 3.32 -11 4 C-11.99 3.01 -12.98 2.02 -14 1 C-9.45352102 -0.1732849 -4.66972706 -0.54128467 0 0 Z M-12 4 C-9.03 4.33 -6.06 4.66 -3 5 C-5.90092502 6.93395001 -6.89674737 7.30131941 -10.1875 7.625 C-11.445625 7.74875 -12.70375 7.8725 -14 8 C-14 7.34 -14 6.68 -14 6 C-13.34 6 -12.68 6 -12 6 C-12 5.34 -12 4.68 -12 4 Z " fill="#50AC61" transform="translate(374,232)"/>
<path d="M0 0 C0.6875 2.5 0.6875 2.5 1 5 C0 6 0 6 -1.94946289 6.11352539 C-2.7821167 6.10828857 -3.61477051 6.10305176 -4.47265625 6.09765625 C-5.37177734 6.09443359 -6.27089844 6.09121094 -7.19726562 6.08789062 C-8.14279297 6.07951172 -9.08832031 6.07113281 -10.0625 6.0625 C-11.01189453 6.05798828 -11.96128906 6.05347656 -12.93945312 6.04882812 C-15.29303065 6.0370011 -17.64648477 6.02052025 -20 6 C-20 5.67 -20 5.34 -20 5 C-15.38 4.67 -10.76 4.34 -6 4 C-6 3.34 -6 2.68 -6 2 C-7.32 1.67 -8.64 1.34 -10 1 C-8.71073008 0.63720544 -7.41846728 0.28503302 -6.125 -0.0625 C-5.40570313 -0.25972656 -4.68640625 -0.45695313 -3.9453125 -0.66015625 C-2 -1 -2 -1 0 0 Z " fill="#2E455B" transform="translate(266,210)"/>
<path d="M0 0 C0.33 0 0.66 0 1 0 C1.20086443 3.71599191 1.1519437 4.77208445 -1 8 C-3.97903963 9.15317663 -4.86559131 9.0448029 -8 8 C-7.67 7.01 -7.34 6.02 -7 5 C-5.35 4.67 -3.7 4.34 -2 4 C-7.94 3.67 -13.88 3.34 -20 3 C-20 2.67 -20 2.34 -20 2 C-13.4 2 -6.8 2 0 2 C0 1.34 0 0.68 0 0 Z " fill="#4F6270" transform="translate(179,245)"/>
<path d="M0 0 C0.66 0.33 1.32 0.66 2 1 C0.88180215 6.21825661 -1.31348642 8.58587409 -5.24609375 11.8984375 C-7 13 -7 13 -10 13 C-9 11 -9 11 -5.9375 9.25 C-4.968125 8.5075 -3.99875 7.765 -3 7 C-2.49830585 3.83073436 -2.49830585 3.83073436 -3 1 C-2.01 0.67 -1.02 0.34 0 0 Z " fill="#26394A" transform="translate(363,328)"/>
<path d="M0 0 C2.12508244 3.18762365 2.5020163 5.26512223 3 9 C1.35 9.33 -0.3 9.66 -2 10 C-2.66 7.03 -3.32 4.06 -4 1 C-2.68 1.33 -1.36 1.66 0 2 C0 1.34 0 0.68 0 0 Z " fill="#2A3F55" transform="translate(92,302)"/>
<path d="M0 0 C1.32 0.66 2.64 1.32 4 2 C3.29445932 5.66881155 1.72264494 8.70450534 0 12 C-0.66 12 -1.32 12 -2 12 C-1.44687265 7.97007218 -0.8441938 3.97977076 0 0 Z " fill="#324250" transform="translate(373,209)"/>
<path d="M0 0 C0.99 0 1.98 0 3 0 C3 1.65 3 3.3 3 5 C0.37684968 6.31157516 -1.23033436 5.89649988 -4.125 5.5625 C-5.03507813 5.46066406 -5.94515625 5.35882813 -6.8828125 5.25390625 C-7.58148438 5.17011719 -8.28015625 5.08632812 -9 5 C-9 4.67 -9 4.34 -9 4 C-4.545 3.505 -4.545 3.505 0 3 C0 2.01 0 1.02 0 0 Z " fill="#253C52" transform="translate(168,230)"/>
<path d="M0 0 C0.66 0.66 1.32 1.32 2 2 C1.625 4.625 1.625 4.625 1 7 C-0.65 7 -2.3 7 -4 7 C-4 4 -4 4 -2 1.8125 C-1.34 1.214375 -0.68 0.61625 0 0 Z " fill="#263B50" transform="translate(291,192)"/>
<path d="M0 0 C0.886875 0.825 1.77375 1.65 2.6875 2.5 C5.01307407 4.46099476 5.74787194 4.97259478 8.875 5.3125 C9.57625 5.209375 10.2775 5.10625 11 5 C11 5.66 11 6.32 11 7 C5.66912345 7.43695709 5.66912345 7.43695709 3 7 C0.97170628 4.59140121 0 3.16955691 0 0 Z " fill="#4DA85A" transform="translate(357,264)"/>
<path d="M0 0 C0.66 0.33 1.32 0.66 2 1 C2 5 2 5 0.5 6.75 C0.005 7.1625 -0.49 7.575 -1 8 C-1 7.01 -1 6.02 -1 5 C-1.66 5 -2.32 5 -3 5 C-1.125 1.125 -1.125 1.125 0 0 Z " fill="#293E52" transform="translate(152,250)"/>
<path d="M0 0 C1.34780093 2.69560185 0.67336458 3.742617 -0.25 6.5625 C-0.50265625 7.36816406 -0.7553125 8.17382812 -1.015625 9.00390625 C-1.34046875 9.66261719 -1.6653125 10.32132813 -2 11 C-2.99 11.33 -3.98 11.66 -5 12 C-4.52389341 7.00088076 -2.96837781 4.02167317 0 0 Z " fill="#59AF67" transform="translate(349,241)"/>
<path d="M0 0 C2.475 0.495 2.475 0.495 5 1 C5 2.98 5 4.96 5 7 C4.01 7.33 3.02 7.66 2 8 C2 5.69 2 3.38 2 1 C1.34 0.67 0.68 0.34 0 0 Z " fill="#2B4054" transform="translate(166,160)"/>
<path d="M0 0 C0.99 0.33 1.98 0.66 3 1 C2.54625 1.433125 2.0925 1.86625 1.625 2.3125 C-0.20024334 4.10798342 -0.20024334 4.10798342 -2 7 C-3.32 7.33 -4.64 7.66 -6 8 C-4.02 5.36 -2.04 2.72 0 0 Z " fill="#4BA756" transform="translate(379,256)"/>
<path d="M0 0 C0.99 0 1.98 0 3 0 C6 5.75 6 5.75 6 8 C5.34 8 4.68 8 4 8 C2.68 5.36 1.36 2.72 0 0 Z " fill="#3BAA3F" transform="translate(384,240)"/>
<path d="M0 0 C0.66 0 1.32 0 2 0 C2.33 2.97 2.66 5.94 3 9 C2.01 8.34 1.02 7.68 0 7 C-0.1875 3.375 -0.1875 3.375 0 0 Z " fill="#31475C" transform="translate(84,224)"/>
<path d="M0 0 C0.66 0 1.32 0 2 0 C2 2.31 2 4.62 2 7 C1.01 7 0.02 7 -1 7 C-0.67 4.69 -0.34 2.38 0 0 Z " fill="#324759" transform="translate(422,292)"/>
<path d="M0 0 C2 3 2 3 2 5 C1.34 5 0.68 5 0 5 C-0.33 5.99 -0.66 6.98 -1 8 C-1.33 6.02 -1.66 4.04 -2 2 C-1.34 2 -0.68 2 0 2 C0 1.34 0 0.68 0 0 Z " fill="#2D4156" transform="translate(441,190)"/>
</svg>
